<svg id="Capa_1" enable-background="new 0 0 512 512" height="512" viewBox="0 0 512 512" width="512" xmlns="http://www.w3.org/2000/svg"><g><g><path d="m126.309 213.104-81.9 81.929c-9.891 9.891-25.927 9.891-35.817 0-9.891-9.891-9.891-25.926 0-35.817l76.376-76.399" fill="#98e8f2"/><path d="m197.054 279.159-116.169 116.765c-9.891 9.891-25.926 9.891-35.817 0-9.891-9.891-9.891-25.926 0-35.817l116.169-116.765" fill="#98e8f2"/><path d="m415.86 442.159-48.596-1.712-33.61-33.611 5.161-19.913 19.064-4.312 47.332 13.891z" fill="#75b7f2"/><path d="m402.547 476.681 48.62-50.447-66.722-66.723-1.681-1.785-21.201 5.184-3.684 19.701 32.459 31.534-24.458 24.918z" fill="#8289f3"/><path d="m436.814 431.664-29.581 29.581c-10.634 10.634-11.529 27.32-2.684 38.972.812 1.07 17.804 3.131 17.804 3.131s11.771 2.844 23.382-8.767l23.691-25.815c11.611-11.611-.275-28.959-.275-28.959-10.382-10.382-15.11-14.129-28.425-11.439-1.374.968-2.683 2.067-3.912 3.296z" fill="#ffa785"/><path d="m47.947 72.345c-27.078 27.078-25.377 71.475 3.693 96.402l125.379 107.512 156.635 130.577 24.754-24.754 1.749-27.495-215.424-272.441c-6.922-8.179-14.839-18.789-24.677-23.886-23.795-10.037-52.489-5.535-72.109 14.085z" fill="#ffa785"/><path d="m478.86 431.664c-8.012-8.012-19.456-10.486-29.597-7.439 0 0-4.625 1.212-8.537 4.142.031.031.458.561.49.593 10.535 10.535 10.535 27.615 0 38.149l-26.839 26.839c-2.875 2.875-6.239 4.959-9.823 6.265.813 1.07 1.702 2.101 2.679 3.079 11.611 11.611 30.436 11.611 42.047 0l29.581-29.581c11.61-11.611 11.61-30.436-.001-42.047z" fill="#ff7d87"/><path d="m357.788 382.703 24.977-24.977-236.32-279.215c-7.136-10.32-20.646-18.357-27.18-20.577-.526.036 4.446 4.492 5.522 5.574.715.72 5.567 6.7 7.111 9.318l223.715 307.763z" fill="#ff7d87"/><path d="m402.939 80.985c0 39.521-24.704 63.036-64.225 63.036-36.36 0-62.186-23.447-70.172-64.296-1.007-5.148-2.554-10.36-1.483-15.285 5.871-26.984 26.965-48.286 53.835-54.459 5.171-1.188 12.878-.109 18.329.832 38.4 6.626 63.716 30.651 63.716 70.172z" fill="#e5effb"/><path d="m336.983 8.165c-5.533 0-10.911.649-16.084 1.837 17.688 5.341 30.571 21.756 30.571 41.186 0 23.761-19.262 43.023-43.023 43.023-19.43 0-35.845-12.883-41.186-30.571-1.188 5.172-1.837 10.551-1.837 16.083 0 39.521 32.038 71.56 71.559 71.56 39.522 0 71.559-32.038 71.559-71.56.001-39.52-32.037-71.558-71.559-71.558z" fill="#eab7f8"/><path d="m367.188 444.61c-1.871 0-3.744-.714-5.172-2.142-2.856-2.856-2.856-7.487 0-10.344l45.676-45.677c2.857-2.856 7.488-2.856 10.345 0 2.856 2.856 2.856 7.487 0 10.344l-45.677 45.677c-1.428 1.428-3.301 2.142-5.172 2.142z" fill="#646ce8"/><path d="m287.586 135.618c-1.777 0-3.56-.644-4.967-1.947-2.964-2.744-3.142-7.372-.398-10.336 11.025-11.905 17.095-27.403 17.095-43.639 0-16.21-6.054-31.689-17.047-43.586-2.741-2.967-2.558-7.594.408-10.336 2.967-2.742 7.595-2.559 10.337.408 13.497 14.608 20.931 33.612 20.931 53.513 0 19.933-7.454 38.961-20.99 53.578-1.442 1.557-3.403 2.345-5.369 2.345z" fill="#cb92e0"/><path d="m386.329 135.618c-1.969 0-3.933-.79-5.375-2.35-13.497-14.608-20.931-33.613-20.931-53.514 0-19.933 7.454-38.961 20.99-53.578 2.744-2.963 7.372-3.141 10.336-.397 2.964 2.745 3.142 7.372.397 10.336-11.023 11.905-17.094 27.403-17.094 43.639 0 16.21 6.054 31.689 17.047 43.586 2.741 2.967 2.558 7.594-.409 10.336-1.406 1.3-3.187 1.942-4.961 1.942z" fill="#cb92e0"/><g fill="#d9535e"><path d="m244.321 293.417c-1.872 0-3.744-.714-5.172-2.143l-8.225-8.227c-2.856-2.856-2.856-7.487.001-10.344 2.856-2.856 7.488-2.855 10.344.001l8.226 8.227c2.856 2.856 2.856 7.487-.001 10.344-1.429 1.428-3.301 2.142-5.173 2.142z"/><path d="m283.21 298.84c-1.871 0-3.744-.714-5.171-2.142l-8.227-8.226c-2.857-2.856-2.857-7.487-.001-10.344 2.857-2.856 7.489-2.857 10.344 0l8.227 8.226c2.857 2.856 2.857 7.487.001 10.344-1.429 1.427-3.301 2.142-5.173 2.142z"/><path d="m315.406 350.382c-1.871 0-3.744-.714-5.171-2.142l-8.227-8.226c-2.857-2.856-2.857-7.487-.001-10.344 2.857-2.856 7.489-2.857 10.344 0l8.227 8.226c2.857 2.856 2.857 7.487.001 10.344-1.429 1.427-3.301 2.142-5.173 2.142z"/></g><path d="m117.579 180.056c-2.532 0-5.07-.915-7.08-2.766l-21.9-20.189c-4.243-3.912-4.511-10.522-.6-14.765 3.912-4.243 10.52-4.512 14.765-.601l21.9 20.189c4.243 3.912 4.511 10.522.6 14.765-2.06 2.234-4.868 3.367-7.685 3.367z" fill="#fff"/><path d="m68.145 136.028c-2.439 0-4.888-.849-6.869-2.579l-1.313-1.147c-4.346-3.796-4.793-10.397-.997-14.743 3.798-4.347 10.398-4.792 14.744-.996l1.313 1.147c4.346 3.796 4.793 10.397.997 14.743-2.067 2.365-4.964 3.575-7.875 3.575z" fill="#fff"/></g><g><path d="m470.197 148.519-8.5 23.902c-.364 1.023-1.085 1.834-1.994 2.244l-21.236 9.567c-3 1.352-3 6.132 0 7.484l21.236 9.568c.909.41 1.63 1.221 1.994 2.244l8.5 23.902c1.201 3.377 5.448 3.377 6.649 0l8.5-23.902c.364-1.023 1.084-1.834 1.994-2.244l21.236-9.568c3-1.352 3-6.132 0-7.484l-21.236-9.567c-.909-.41-1.63-1.221-1.994-2.244l-8.5-23.902c-1.201-3.377-5.448-3.377-6.649 0z" fill="#ffc8b7"/><path d="m197.24 1.879-6.305 17.73c-.27.759-.804 1.361-1.479 1.665l-15.753 7.097c-2.225 1.003-2.225 4.548 0 5.551l15.753 7.097c.674.304 1.209.905 1.479 1.665l6.305 17.73c.891 2.505 4.041 2.505 4.932 0l6.305-17.73c.27-.759.804-1.361 1.479-1.665l15.752-7.097c2.225-1.003 2.225-4.548 0-5.551l-15.752-7.097c-.674-.304-1.209-.906-1.479-1.665l-6.305-17.73c-.891-2.505-4.041-2.505-4.932 0z" fill="#ffc8b7"/><g fill="#ffa785"><path d="m388.606 261.25c0 10.251 8.31 18.561 18.561 18.561s18.561-8.31 18.561-18.561-8.31-18.561-18.561-18.561-18.561 8.31-18.561 18.561z"/><path d="m457.999 82.175c0 4.286 3.475 7.761 7.761 7.761s7.761-3.475 7.761-7.761c0-4.287-3.475-7.761-7.761-7.761-4.287 0-7.761 3.474-7.761 7.761z"/></g></g></g></svg>