<svg id="Capa_1" enable-background="new 0 0 512 512" height="512" viewBox="0 0 512 512" width="512" xmlns="http://www.w3.org/2000/svg"><g><path d="m53.188 110.929 8.494 23.883c.364 1.023 1.084 1.833 1.992 2.242l21.219 9.56c2.998 1.351 2.998 6.127 0 7.478l-21.219 9.56c-.909.409-1.629 1.22-1.992 2.242l-8.494 23.883c-1.2 3.374-5.444 3.374-6.644 0l-8.494-23.883c-.364-1.023-1.084-1.833-1.992-2.242l-21.22-9.56c-2.998-1.351-2.998-6.127 0-7.478l21.22-9.56c.909-.409 1.628-1.22 1.992-2.242l8.494-23.883c1.2-3.375 5.444-3.375 6.644 0z" fill="#bdf4e3"/><g><g><path d="m201.266 512h-154.656c-23.273 0-42.14-18.867-42.14-42.14v-154.656c0-23.273 18.867-42.14 42.14-42.14h154.656c23.273 0 42.14 18.867 42.14 42.14v154.656c0 23.273-18.867 42.14-42.14 42.14z" fill="#78eac4"/><path d="m187.557 474.764h-127.238c-10.28 0-18.613-8.333-18.613-18.613v-127.238c0-10.28 8.333-18.613 18.613-18.613h127.238c10.28 0 18.613 8.333 18.613 18.613v127.238c.001 10.28-8.333 18.613-18.613 18.613z" fill="#ffdcb6"/><path d="m201.266 273.065h-45.596c17.881 0 32.376 14.495 32.376 32.376v118.823c0 17.881-14.495 32.376-32.376 32.376h-118.823c-17.881 0-32.376-14.495-32.376-32.376v45.596c0 23.273 18.867 42.14 42.14 42.14h154.656c23.273 0 42.14-18.867 42.14-42.14v-154.656c-.001-23.273-18.868-42.139-42.141-42.139z" fill="#71afc4"/><path d="m188.046 310.325v113.939c0 17.881-14.495 32.376-32.376 32.376h-113.939c.262 10.052 8.474 18.125 18.588 18.125h127.238c10.28 0 18.613-8.333 18.613-18.613v-127.239c.001-10.115-8.072-18.327-18.124-18.588z" fill="#efa5b6"/><path d="m440.202 512h-154.656c-23.273 0-42.14-18.867-42.14-42.14v-154.656c0-23.273 18.867-42.14 42.14-42.14h154.656c23.273 0 42.14 18.867 42.14 42.14v154.656c-.001 23.273-18.867 42.14-42.14 42.14z" fill="#f7c4db"/><path d="m426.493 474.764h-127.238c-10.28 0-18.613-8.333-18.613-18.613v-127.238c0-10.28 8.333-18.613 18.613-18.613h127.238c10.28 0 18.613 8.333 18.613 18.613v127.238c0 10.28-8.333 18.613-18.613 18.613z" fill="#ffdcb6"/><path d="m441.044 273.065h-45.596c17.881 0 32.376 14.495 32.376 32.376v118.823c0 17.881-14.495 32.376-32.376 32.376h-118.824c-17.881 0-32.376-14.495-32.376-32.376v45.596c0 23.273 18.867 42.14 42.14 42.14h154.656c23.273 0 42.14-18.867 42.14-42.14v-154.656c0-23.273-18.867-42.139-42.14-42.139z" fill="#e893db"/><path d="m427.824 310.367v113.897c0 17.881-14.495 32.376-32.376 32.376h-114.782c.262 10.052 8.474 18.125 18.589 18.125h127.238c10.28 0 18.613-8.333 18.613-18.613v-127.239c0-9.83-7.626-17.861-17.282-18.546z" fill="#efa5b6"/><path d="m321.576 272.834h-154.656c-23.273 0-42.14-18.867-42.14-42.14v-154.656c0-23.273 18.867-42.14 42.14-42.14h154.656c23.273 0 42.14 18.867 42.14 42.14v154.656c0 23.273-18.867 42.14-42.14 42.14z" fill="#ffe266"/><path d="m307.867 235.598h-127.238c-10.28 0-18.613-8.333-18.613-18.613v-127.238c0-10.28 8.333-18.613 18.613-18.613h127.238c10.28 0 18.613 8.333 18.613 18.613v127.238c0 10.28-8.333 18.613-18.613 18.613z" fill="#ffdcb6"/><path d="m321.576 33.898h-45.596c17.881 0 32.376 14.495 32.376 32.376v118.823c0 17.881-14.495 32.376-32.376 32.376h-118.823c-17.881 0-32.376-14.495-32.376-32.376v45.596c0 23.273 18.867 42.14 42.14 42.14h154.656c23.273 0 42.139-18.867 42.139-42.14v-154.655c0-23.273-18.867-42.14-42.14-42.14z" fill="#efaa66"/><path d="m308.356 71.158v113.939c0 17.881-14.495 32.376-32.376 32.376h-113.939c.262 10.051 8.474 18.124 18.588 18.124h127.238c10.28 0 18.613-8.333 18.613-18.613v-127.237c0-10.115-8.072-18.327-18.124-18.589z" fill="#efa5b6"/><path d="m172.944 439.221-37.373-99.029c-.035-.092-.071-.183-.108-.274-1.901-4.622-6.356-7.605-11.353-7.605-.004 0-.008 0-.012 0-5.001.005-9.457 2.999-11.351 7.627-.031.076-.061.151-.09.228l-37.715 99.025c-1.966 5.161.625 10.938 5.786 12.904 1.171.446 2.374.658 3.557.658 4.03 0 7.828-2.454 9.347-6.444l6.94-18.221h46.793l6.866 18.193c1.95 5.168 7.718 7.774 12.887 5.825 5.168-1.95 7.776-7.72 5.826-12.887zm-64.753-31.131 15.886-41.712 15.742 41.712z" fill="#d58a9c"/><path d="m387.821 385.349c4.194-5.548 6.686-12.45 6.686-19.925 0-18.258-14.854-33.111-33.111-33.111h-29.175c-5.522 0-10 4.477-10 10v100.439c0 2.66 1.06 5.21 2.944 7.087 1.875 1.866 4.412 2.913 7.056 2.913h.044c.269-.001 26.928-.119 34.227-.119 20.421 0 37.035-16.614 37.035-37.035 0-12.484-6.215-23.536-15.706-30.249zm-26.425-33.037c7.229 0 13.111 5.882 13.111 13.111s-5.882 13.111-13.111 13.111c-2.131 0-19.175.027-19.175.027v-26.25h19.175zm5.096 80.321c-4.411 0-15.813.042-24.271.077v-34.115l24.271-.033c9.394 0 17.035 7.642 17.035 17.036 0 9.393-7.642 17.035-17.035 17.035z" fill="#d58a9c"/><g><g><path d="m253.539 213.586c-33.205 0-60.22-27.015-60.22-60.22s27.015-60.22 60.22-60.22c12.068 0 23.712 3.559 33.677 10.291 4.576 3.092 5.779 9.308 2.688 13.885-3.093 4.576-9.308 5.779-13.885 2.688-6.645-4.49-14.418-6.863-22.48-6.863-22.177 0-40.22 18.043-40.22 40.22s18.043 40.22 40.22 40.22c8.333 0 15.369-2.503 20.912-7.439 1.078-.961 2.109-2.025 3.064-3.164 3.55-4.232 9.856-4.785 14.088-1.236s4.785 9.856 1.236 14.088c-1.575 1.879-3.287 3.644-5.088 5.247-9.184 8.179-21.015 12.503-34.212 12.503z" fill="#d58a9c"/></g></g><g><path d="m69.636 395.727c-5.523 0-10-4.477-10-10v-12.6c0-5.523 4.477-10 10-10s10 4.477 10 10v12.6c0 5.522-4.477 10-10 10z" fill="#fff"/></g><g><path d="m69.636 353.307c-5.523 0-10-4.477-10-10v-4.623c0-5.523 4.477-10 10-10s10 4.477 10 10v4.623c0 5.523-4.477 10-10 10z" fill="#fff"/></g></g><g><path d="m507.529 172.413c0 10.701-8.675 19.376-19.376 19.376s-19.376-8.675-19.376-19.376 8.675-19.376 19.376-19.376 19.376 8.675 19.376 19.376z" fill="#78eac4"/><circle cx="56.73" cy="71.134" fill="#78eac4" r="8.206"/><path d="m428.999 1.961 6.582 18.509c.282.792.84 1.42 1.544 1.738l16.444 7.409c2.323 1.047 2.323 4.748 0 5.795l-16.444 7.409c-.704.317-1.262.945-1.544 1.738l-6.582 18.509c-.93 2.615-4.219 2.615-5.149 0l-6.582-18.509c-.282-.792-.84-1.42-1.544-1.738l-16.444-7.409c-2.323-1.047-2.323-4.748 0-5.795l16.444-7.409c.704-.317 1.262-.945 1.544-1.738l6.582-18.509c.931-2.615 4.219-2.615 5.149 0z" fill="#bdf4e3"/></g></g></g></svg>