<svg id="Capa_1" enable-background="new 0 0 518 518" height="512" viewBox="0 0 518 518" width="512" xmlns="http://www.w3.org/2000/svg"><g><g><path d="m402.939 412.152h-307.832c-14.983 0-27.129-12.146-27.129-27.129v-118.005c0-84 68.096-152.096 152.096-152.096h57.897c84 0 152.096 68.096 152.096 152.096v118.005c.001 14.983-12.145 27.129-27.128 27.129z" fill="#b07676"/><path d="m362.843 508.516v-30.771c0-62.861-50.959-113.82-113.82-113.82-62.861 0-113.82 50.959-113.82 113.82v30.771z" fill="#b2e7f1"/><path d="m325 503.589v-29.074c0-41.961-34.016-75.977-75.977-75.977-41.961 0-75.977 34.016-75.977 75.977v29.074z" fill="#b2e7f1"/><path d="m256.996 403.912c21.976 9.884 37.434 33.342 37.434 60.718v6.587c0 10.253-8.312 18.565-18.565 18.565h-102.818v18.763h151.953v-29.074c0-39.268-29.791-71.573-68.004-75.559z" fill="#a7adf1"/><path d="m179.353 440.095 8.145 10.945c10.711 14.392 30.936 14.294 41.528-.201l18.682-25.566 18.408 25.527c10.482 14.535 30.646 14.814 41.465.573l8.345-10.985v-43.95h-136.435s-.138 43.118-.138 43.657z" fill="#fff"/><g><path d="m173.047 518c-3.313 0-6-2.687-6-6v-32.895c0-12.311 2.664-24.151 7.917-35.189 1.425-2.993 5.006-4.262 7.996-2.84 2.992 1.425 4.264 5.004 2.84 7.996-4.481 9.415-6.753 19.52-6.753 30.033v32.895c0 3.314-2.687 6-6 6z" fill="#95cde6"/></g><g fill="#ffd6d4"><ellipse cx="414.386" cy="318.636" rx="37.693" ry="37.693" transform="matrix(.23 -.973 .973 .23 9.068 648.729)"/><ellipse cx="83.661" cy="318.636" rx="37.693" ry="37.693" transform="matrix(.122 -.993 .993 .122 -242.81 362.738)"/><path d="m281.143 411.787h-64.239c-79.826 0-144.537-64.712-144.537-144.538 0-79.826 64.712-144.538 144.537-144.538h64.239c79.826 0 144.537 64.712 144.537 144.538 0 79.826-64.711 144.538-144.537 144.538z"/></g><path d="m281.143 123.076h-18.535c64.716 0 117.178 52.462 117.178 117.178v9.951c0 64.716-52.462 117.178-117.178 117.178h-73.064c-61.931 0-112.634-48.047-116.883-108.897-.188 3.019-.295 6.06-.295 9.127 0 79.826 64.712 144.538 144.538 144.538h64.239c79.826 0 144.538-64.712 144.538-144.538-.001-79.825-64.712-144.537-144.538-144.537z" fill="#e69fd5"/><g><circle cx="162.792" cy="326.929" fill="#f285bb" r="16.136"/><circle cx="335.255" cy="326.929" fill="#f285bb" r="16.135"/><g><path d="m175.859 293.425c-.918 0-1.85-.211-2.723-.657-.021-.01-4.752-2.331-10.345-2.331-5.619 0-10.298 2.308-10.344 2.331-2.95 1.507-6.565.335-8.071-2.616-1.507-2.951-.336-6.565 2.616-8.071.73-.373 7.381-3.643 15.799-3.643 8.419 0 15.069 3.271 15.8 3.643 2.952 1.506 4.123 5.12 2.616 8.071-1.06 2.078-3.166 3.273-5.348 3.273z" fill="#f285bb"/></g><g><path d="m322.189 293.425c-2.184 0-4.288-1.195-5.349-3.272-1.507-2.952-.336-6.565 2.615-8.072.73-.373 7.38-3.643 15.8-3.643 8.419 0 15.069 3.271 15.8 3.643 2.952 1.506 4.123 5.12 2.616 8.071-1.507 2.952-5.122 4.123-8.071 2.616-.02-.01-4.752-2.331-10.345-2.331-5.619 0-10.298 2.308-10.343 2.331-.874.446-1.805.657-2.723.657z" fill="#f285bb"/></g><g><path d="m249.024 349.065c-12.206 0-22.136-9.93-22.136-22.136 0-3.313 2.686-6 6-6 3.313 0 6 2.687 6 6 0 5.589 4.547 10.136 10.136 10.136s10.136-4.547 10.136-10.136c0-3.313 2.687-6 6-6 3.314 0 6 2.687 6 6-.001 12.206-9.93 22.136-22.136 22.136z" fill="#f285bb"/></g></g><path d="m77.143 304.607s80.54-33.267 105.572-82.576-108.608-23.455-108.608-23.455-33.107 59.191 3.036 106.031z" fill="#b07676"/><path d="m420.8 304.607s-82.45-33.267-107.482-82.576 108.608-23.455 108.608-23.455 35.018 59.191-1.126 106.031z" fill="#b07676"/><path d="m428.066 187.447c-16.534-33.858-69.713-121.019-179.043-121.019-109.329 0-162.509 87.16-179.042 121.019-16.72 1.934-29.703 16.133-29.703 33.371 0 18.558 15.045 33.604 33.603 33.604h350.285c18.558 0 33.603-15.045 33.603-33.604 0-17.238-12.983-31.436-29.703-33.371z" fill="#fef2a8"/><path d="m405.464 150.015h-312.579c-8.417 11.169-16.143 23.492-22.904 37.433h358.085c-6.699-13.495-14.137-26.088-22.602-37.433z" fill="#ffe266"/><path d="m428.066 187.447c-16.534-33.859-69.713-121.019-179.043-121.019-12.977 0-25.153 1.24-36.58 3.461 84.848 16.491 126.412 87.718 140.984 117.558 16.72 1.934 31.182 16.133 31.182 33.371 0 18.559-15.045 33.604-33.603 33.604h73.16c18.559 0 33.603-15.045 33.603-33.604 0-17.238-12.983-31.436-29.703-33.371z" fill="#eeb6a8"/><path d="m420.743 173.633c-4.066-7.118-9.131-15.181-15.28-23.618h-74.294c10.424 14.577 17.677 28.051 22.258 37.433h74.639c-2.344-4.723-4.786-9.328-7.323-13.815z" fill="#efaa66"/><g><path d="m149.216 226.77c-7.568 0-15.16-.025-22.887-.077-5.523-.037-9.971-4.544-9.934-10.066.037-5.5 4.507-9.934 9.999-9.934h.067c15.363.104 30.198.104 45.354 0h.068c5.492 0 9.962 4.433 9.999 9.933.037 5.522-4.409 10.03-9.933 10.067-7.621.051-15.165.077-22.733.077z" fill="#fff"/></g><g><path d="m92.19 226.693h-13.697c-5.522 0-10-4.478-10-10s4.478-10 10-10h13.697c5.522 0 10 4.478 10 10s-4.478 10-10 10z" fill="#fff"/></g></g><g><path d="m81.86 2.565 8.61 24.211c.369 1.037 1.099 1.858 2.02 2.273l21.51 9.691c3.039 1.369 3.039 6.211 0 7.58l-21.51 9.691c-.921.415-1.651 1.236-2.02 2.273l-8.61 24.211c-1.216 3.421-5.518 3.421-6.735 0l-8.61-24.211c-.369-1.037-1.098-1.858-2.02-2.273l-21.51-9.691c-3.039-1.369-3.039-6.211 0-7.58l21.51-9.691c.921-.415 1.651-1.237 2.02-2.273l8.61-24.211c1.217-3.42 5.519-3.42 6.735 0z" fill="#fef2a8"/><ellipse cx="398.945" cy="39.134" fill="#ffe266" rx="18.801" ry="18.801" transform="matrix(.383 -.924 .924 .383 210.121 392.735)"/><ellipse cx="26.191" cy="96.126" fill="#ffe266" rx="7.962" ry="7.962" transform="matrix(.973 -.23 .23 .973 -21.385 8.589)"/><path d="m474.239 79.96 6.387 17.959c.273.769.815 1.378 1.498 1.686l15.956 7.189c2.254 1.016 2.254 4.607 0 5.623l-15.956 7.189c-.683.308-1.224.917-1.498 1.686l-6.387 17.959c-.902 2.537-4.093 2.537-4.996 0l-6.387-17.959c-.273-.769-.815-1.378-1.498-1.686l-15.956-7.189c-2.254-1.016-2.254-4.607 0-5.623l15.956-7.189c.683-.308 1.225-.917 1.498-1.686l6.387-17.959c.903-2.537 4.094-2.537 4.996 0z" fill="#fef2a8"/></g></g></svg>